<svg xmlns="http://www.w3.org/2000/svg" xmlns:xlink="http://www.w3.org/1999/xlink" width="1565" zoomAndPan="magnify" viewBox="0 0 1173.75 555.750005" height="741" preserveAspectRatio="xMidYMid meet" version="1.0"><defs><filter x="0%" y="0%" width="100%" height="100%" id="023665d63d"><feColorMatrix values="0 0 0 0 1 0 0 0 0 1 0 0 0 0 1 0 0 0 1 0" color-interpolation-filters="sRGB"/></filter><g/><clipPath id="9b7e2c04cb"><path d="M 277 0 L 890 0 L 890 555.5 L 277 555.5 Z M 277 0 " clip-rule="nonzero"/></clipPath><mask id="b6339e4fcf"><g filter="url(#023665d63d)"><rect x="-117.375" width="1408.5" fill="#000000" y="-55.575001" height="666.900006" fill-opacity="0.42"/></g></mask><clipPath id="743df44b81"><path d="M 1.101562 0 L 612.898438 0 L 612.898438 555.5 L 1.101562 555.5 Z M 1.101562 0 " clip-rule="nonzero"/></clipPath><clipPath id="d5d0eee4d8"><rect x="0" width="613" y="0" height="556"/></clipPath><clipPath id="9134c33228"><path d="M 0.140625 0 L 1173.359375 0 L 1173.359375 555.5 L 0.140625 555.5 Z M 0.140625 0 " clip-rule="nonzero"/></clipPath><clipPath id="bd5e45f818"><path d="M 0.140625 0 L 1173.359375 0 L 1173.359375 555.5 L 0.140625 555.5 Z M 0.140625 0 " clip-rule="nonzero"/></clipPath><clipPath id="2cdcdfa485"><path d="M 258.4375 0 L 973.617188 0 L 973.617188 555.5 L 258.4375 555.5 Z M 258.4375 0 " clip-rule="nonzero"/></clipPath><linearGradient x1="751.492" gradientTransform="matrix(0.749811, 0, 0, 0.749675, 52.551341, 216.875886)" y1="-289.293161" x2="751.492" gradientUnits="userSpaceOnUse" y2="451.694675" id="715d21156e"><stop stop-opacity="1" stop-color="rgb(0%, 12.159729%, 39.608765%)" offset="0"/><stop stop-opacity="1" stop-color="rgb(0%, 12.159729%, 39.608765%)" offset="0.25"/><stop stop-opacity="1" stop-color="rgb(0%, 12.159729%, 39.608765%)" offset="0.375"/><stop stop-opacity="1" stop-color="rgb(0%, 12.159729%, 39.608765%)" offset="0.40625"/><stop stop-opacity="1" stop-color="rgb(0.579834%, 12.817383%, 40.457153%)" offset="0.410156"/><stop stop-opacity="1" stop-color="rgb(1.159668%, 13.476562%, 41.305542%)" offset="0.414062"/><stop stop-opacity="1" stop-color="rgb(1.768494%, 14.16626%, 42.195129%)" offset="0.417969"/><stop stop-opacity="1" stop-color="rgb(2.377319%, 14.857483%, 43.084717%)" offset="0.421875"/><stop stop-opacity="1" stop-color="rgb(2.984619%, 15.54718%, 43.974304%)" offset="0.425781"/><stop stop-opacity="1" stop-color="rgb(3.593445%, 16.238403%, 44.863892%)" offset="0.429687"/><stop stop-opacity="1" stop-color="rgb(4.202271%, 16.928101%, 45.751953%)" offset="0.433594"/><stop stop-opacity="1" stop-color="rgb(4.811096%, 17.617798%, 46.641541%)" offset="0.4375"/><stop stop-opacity="1" stop-color="rgb(5.418396%, 18.307495%, 47.531128%)" offset="0.441406"/><stop stop-opacity="1" stop-color="rgb(6.027222%, 18.998718%, 48.420715%)" offset="0.445312"/><stop stop-opacity="1" stop-color="rgb(6.636047%, 19.688416%, 49.310303%)" offset="0.449219"/><stop stop-opacity="1" stop-color="rgb(7.244873%, 20.379639%, 50.19989%)" offset="0.453125"/><stop stop-opacity="1" stop-color="rgb(7.852173%, 21.069336%, 51.089478%)" offset="0.457031"/><stop stop-opacity="1" stop-color="rgb(8.460999%, 21.760559%, 51.979065%)" offset="0.460937"/><stop stop-opacity="1" stop-color="rgb(9.069824%, 22.450256%, 52.867126%)" offset="0.464844"/><stop stop-opacity="1" stop-color="rgb(9.67865%, 23.141479%, 53.756714%)" offset="0.46875"/><stop stop-opacity="1" stop-color="rgb(10.28595%, 23.831177%, 54.646301%)" offset="0.472656"/><stop stop-opacity="1" stop-color="rgb(10.894775%, 24.5224%, 55.535889%)" offset="0.476562"/><stop stop-opacity="1" stop-color="rgb(11.503601%, 25.212097%, 56.425476%)" offset="0.480469"/><stop stop-opacity="1" stop-color="rgb(12.112427%, 25.90332%, 57.315063%)" offset="0.484375"/><stop stop-opacity="1" stop-color="rgb(12.719727%, 26.593018%, 58.204651%)" offset="0.488281"/><stop stop-opacity="1" stop-color="rgb(13.328552%, 27.282715%, 59.094238%)" offset="0.492187"/><stop stop-opacity="1" stop-color="rgb(13.937378%, 27.972412%, 59.9823%)" offset="0.496094"/><stop stop-opacity="1" stop-color="rgb(14.546204%, 28.663635%, 60.871887%)" offset="0.5"/><stop stop-opacity="1" stop-color="rgb(15.153503%, 29.353333%, 61.761475%)" offset="0.503906"/><stop stop-opacity="1" stop-color="rgb(15.762329%, 30.044556%, 62.651062%)" offset="0.507812"/><stop stop-opacity="1" stop-color="rgb(16.371155%, 30.734253%, 63.540649%)" offset="0.511719"/><stop stop-opacity="1" stop-color="rgb(16.97998%, 31.425476%, 64.430237%)" offset="0.515625"/><stop stop-opacity="1" stop-color="rgb(17.58728%, 32.115173%, 65.319824%)" offset="0.519531"/><stop stop-opacity="1" stop-color="rgb(18.196106%, 32.806396%, 66.209412%)" offset="0.523438"/><stop stop-opacity="1" stop-color="rgb(18.804932%, 33.496094%, 67.097473%)" offset="0.527344"/><stop stop-opacity="1" stop-color="rgb(19.413757%, 34.187317%, 67.987061%)" offset="0.53125"/><stop stop-opacity="1" stop-color="rgb(20.021057%, 34.877014%, 68.876648%)" offset="0.535156"/><stop stop-opacity="1" stop-color="rgb(20.629883%, 35.566711%, 69.766235%)" offset="0.539062"/><stop stop-opacity="1" stop-color="rgb(21.238708%, 36.256409%, 70.655823%)" offset="0.542969"/><stop stop-opacity="1" stop-color="rgb(21.847534%, 36.947632%, 71.54541%)" offset="0.546875"/><stop stop-opacity="1" stop-color="rgb(22.454834%, 37.637329%, 72.433472%)" offset="0.550781"/><stop stop-opacity="1" stop-color="rgb(23.06366%, 38.328552%, 73.323059%)" offset="0.554687"/><stop stop-opacity="1" stop-color="rgb(23.672485%, 39.01825%, 74.212646%)" offset="0.558594"/><stop stop-opacity="1" stop-color="rgb(24.281311%, 39.709473%, 75.102234%)" offset="0.5625"/><stop stop-opacity="1" stop-color="rgb(24.888611%, 40.39917%, 75.991821%)" offset="0.566406"/><stop stop-opacity="1" stop-color="rgb(25.497437%, 41.090393%, 76.881409%)" offset="0.570312"/><stop stop-opacity="1" stop-color="rgb(26.106262%, 41.78009%, 77.770996%)" offset="0.574219"/><stop stop-opacity="1" stop-color="rgb(26.715088%, 42.471313%, 78.660583%)" offset="0.578125"/><stop stop-opacity="1" stop-color="rgb(27.322388%, 43.161011%, 79.548645%)" offset="0.582031"/><stop stop-opacity="1" stop-color="rgb(27.931213%, 43.852234%, 80.438232%)" offset="0.585938"/><stop stop-opacity="1" stop-color="rgb(28.540039%, 44.541931%, 81.32782%)" offset="0.589844"/><stop stop-opacity="1" stop-color="rgb(29.148865%, 45.231628%, 82.217407%)" offset="0.59375"/><stop stop-opacity="1" stop-color="rgb(29.756165%, 45.921326%, 83.106995%)" offset="0.597656"/><stop stop-opacity="1" stop-color="rgb(30.36499%, 46.612549%, 83.996582%)" offset="0.601562"/><stop stop-opacity="1" stop-color="rgb(30.973816%, 47.302246%, 84.886169%)" offset="0.605469"/><stop stop-opacity="1" stop-color="rgb(31.582642%, 47.993469%, 85.775757%)" offset="0.609375"/><stop stop-opacity="1" stop-color="rgb(32.189941%, 48.683167%, 86.663818%)" offset="0.613281"/><stop stop-opacity="1" stop-color="rgb(32.798767%, 49.37439%, 87.553406%)" offset="0.617188"/><stop stop-opacity="1" stop-color="rgb(33.407593%, 50.064087%, 88.442993%)" offset="0.621094"/><stop stop-opacity="1" stop-color="rgb(34.016418%, 50.75531%, 89.332581%)" offset="0.625"/><stop stop-opacity="1" stop-color="rgb(34.623718%, 51.445007%, 90.222168%)" offset="0.628906"/><stop stop-opacity="1" stop-color="rgb(35.232544%, 52.13623%, 91.111755%)" offset="0.632812"/><stop stop-opacity="1" stop-color="rgb(35.84137%, 52.825928%, 92.001343%)" offset="0.636719"/><stop stop-opacity="1" stop-color="rgb(36.450195%, 53.517151%, 92.89093%)" offset="0.640625"/><stop stop-opacity="1" stop-color="rgb(37.057495%, 54.206848%, 93.778992%)" offset="0.644531"/><stop stop-opacity="1" stop-color="rgb(37.666321%, 54.896545%, 94.668579%)" offset="0.648438"/><stop stop-opacity="1" stop-color="rgb(38.273621%, 55.586243%, 95.558167%)" offset="0.652344"/><stop stop-opacity="1" stop-color="rgb(38.882446%, 56.277466%, 96.447754%)" offset="0.65625"/><stop stop-opacity="1" stop-color="rgb(39.491272%, 56.967163%, 97.337341%)" offset="0.660156"/><stop stop-opacity="1" stop-color="rgb(40.100098%, 57.658386%, 98.226929%)" offset="0.664062"/><stop stop-opacity="1" stop-color="rgb(40.438843%, 58.042908%, 98.722839%)" offset="0.667969"/><stop stop-opacity="1" stop-color="rgb(40.779114%, 58.428955%, 99.21875%)" offset="0.671875"/><stop stop-opacity="1" stop-color="rgb(40.779114%, 58.428955%, 99.21875%)" offset="0.6875"/><stop stop-opacity="1" stop-color="rgb(40.779114%, 58.428955%, 99.21875%)" offset="0.75"/><stop stop-opacity="1" stop-color="rgb(40.779114%, 58.428955%, 99.21875%)" offset="1"/></linearGradient><clipPath id="46f51edb8a"><rect x="0" width="1174" y="0" height="556"/></clipPath><clipPath id="7249d98f82"><path d="M 0.140625 0 L 1173.359375 0 L 1173.359375 555.5 L 0.140625 555.5 Z M 0.140625 0 " clip-rule="nonzero"/></clipPath><clipPath id="47c9ebcd10"><rect x="0" width="1174" y="0" height="556"/></clipPath><clipPath id="3f7b2c3f5d"><rect x="0" width="1174" y="0" height="556"/></clipPath><mask id="3d855ef428"><g filter="url(#023665d63d)"><g transform="matrix(1, 0, 0, 1, 0.000000000000000028, -0.000000000000001003)"><g clip-path="url(#3f7b2c3f5d)"><g clip-path="url(#7249d98f82)"><g transform="matrix(1, 0, 0, 1, 0.000000000000000028, -0.000000000000001003)"><g clip-path="url(#47c9ebcd10)"><g fill="#000000" fill-opacity="1"><g transform="translate(548.616899, 341.696079)"><g><path d="M -3.046875 0 L -3.046875 -2.03125 C -0.816406 -2.800781 1.285156 -4.300781 3.265625 -6.53125 C 5.253906 -8.757812 7.21875 -12.296875 9.15625 -17.140625 L 36.3125 -84.53125 C 37.375 -87.238281 37.273438 -89.851562 36.015625 -92.375 L 34.125 -96.4375 L 48.359375 -102.828125 L 84.375 -17 C 86.414062 -12.25 88.378906 -8.757812 90.265625 -6.53125 C 92.148438 -4.300781 93.914062 -2.800781 95.5625 -2.03125 L 95.5625 0 L 69.125 0 L 69.125 -2.03125 C 71.550781 -2.800781 72.445312 -4.300781 71.8125 -6.53125 C 71.1875 -8.757812 69.859375 -12.25 67.828125 -17 L 59.109375 -37.90625 L 20.328125 -37.90625 L 11.90625 -17.140625 C 9.96875 -12.296875 9.191406 -8.710938 9.578125 -6.390625 C 9.972656 -4.066406 11.378906 -2.613281 13.796875 -2.03125 L 13.796875 0 Z M 21.203125 -40.234375 L 58.09375 -40.234375 L 39.359375 -85.109375 Z M 21.203125 -40.234375 "/></g></g></g><g fill="#000000" fill-opacity="1"><g transform="translate(642.003308, 341.696079)"><g><path d="M 6.828125 0 L 6.828125 -2.03125 C 9.242188 -2.800781 10.816406 -4.421875 11.546875 -6.890625 C 12.273438 -9.367188 12.640625 -13.21875 12.640625 -18.4375 L 12.640625 -83.21875 C 12.640625 -88.445312 12.273438 -92.296875 11.546875 -94.765625 C 10.816406 -97.234375 9.242188 -98.851562 6.828125 -99.625 L 6.828125 -101.65625 L 33.84375 -101.65625 L 33.84375 -99.625 C 31.414062 -98.851562 29.835938 -97.234375 29.109375 -94.765625 C 28.390625 -92.296875 28.03125 -88.445312 28.03125 -83.21875 L 28.03125 -18.4375 C 28.03125 -13.21875 28.390625 -9.367188 29.109375 -6.890625 C 29.835938 -4.421875 31.414062 -2.800781 33.84375 -2.03125 L 33.84375 0 Z M 6.828125 0 "/></g></g></g></g></g></g></g></g></g></mask><clipPath id="c80afaf94b"><path d="M 258.4375 0 L 973.617188 0 L 973.617188 555.5 L 258.4375 555.5 Z M 258.4375 0 " clip-rule="nonzero"/></clipPath><clipPath id="4951d68c46"><rect x="0" width="1174" y="0" height="556"/></clipPath><clipPath id="ff60e00839"><rect x="0" width="1174" y="0" height="556"/></clipPath></defs><g clip-path="url(#9b7e2c04cb)"><g mask="url(#b6339e4fcf)"><g transform="matrix(1, 0, 0, 1, 277, -0.000000000000001003)"><g clip-path="url(#d5d0eee4d8)"><g clip-path="url(#743df44b81)"><path fill="#99daff" d="M 27.453125 256.101562 C 42.007812 256.101562 53.804688 267.898438 53.804688 282.453125 C 53.804688 297.007812 42.007812 308.8125 27.453125 308.8125 C 12.910156 308.8125 1.101562 297.007812 1.101562 282.453125 C 1.101562 267.90625 12.910156 256.101562 27.453125 256.101562 M 44.222656 107.898438 C 56.660156 107.898438 66.746094 117.972656 66.746094 130.417969 C 66.746094 142.859375 56.660156 152.941406 44.222656 152.941406 C 31.785156 152.941406 21.699219 142.859375 21.699219 130.417969 C 21.699219 117.972656 31.785156 107.898438 44.222656 107.898438 Z M 140.910156 176.179688 C 160.503906 176.179688 176.394531 192.074219 176.394531 211.664062 C 176.394531 231.257812 160.503906 247.140625 140.910156 247.140625 C 121.320312 247.140625 105.425781 231.246094 105.425781 211.664062 C 105.4375 192.0625 121.320312 176.179688 140.910156 176.179688 Z M 181.902344 39.65625 C 200.03125 39.65625 214.734375 54.351562 214.734375 72.488281 C 214.734375 90.613281 200.03125 105.320312 181.902344 105.320312 C 163.777344 105.320312 149.082031 90.613281 149.082031 72.488281 C 149.082031 54.351562 163.777344 39.65625 181.902344 39.65625 Z M 376.210938 62.765625 L 440.964844 157.753906 L 443.566406 157.703125 C 476.160156 157.703125 502.585938 184.136719 502.585938 216.722656 C 502.585938 249.308594 476.160156 275.757812 443.566406 275.757812 C 428.230469 275.757812 413.757812 269.820312 402.925781 259.535156 L 367.496094 272.378906 C 363.785156 284.945312 355.144531 295.371094 343.859375 301.464844 C 353.164062 304.558594 361.3125 310.492188 367.089844 318.449219 L 411.480469 318.257812 C 420.015625 307.113281 433.394531 300.269531 447.90625 300.269531 C 473.21875 300.269531 493.765625 320.800781 493.765625 346.125 C 493.765625 371.453125 473.230469 391.984375 447.90625 391.984375 C 433.46875 391.984375 420.15625 385.214844 411.609375 374.167969 L 366.683594 374.359375 C 359.582031 383.824219 349.109375 390.328125 337.367188 392.445312 L 320.589844 428.386719 C 322.480469 433.328125 323.457031 438.589844 323.457031 443.949219 C 323.457031 457.789062 316.996094 470.128906 306.921875 478.105469 C 335.96875 486.339844 362.050781 503.34375 381.398438 527.128906 L 477.082031 527.128906 L 511.730469 458.726562 C 559.472656 446.75 593.148438 448.492188 575.824219 390.433594 C 591.222656 375.707031 600.730469 370.339844 583.382812 357.472656 C 590.601562 353.75 592.890625 350.136719 593.929688 345.175781 L 581.382812 321.433594 C 606.472656 307.058594 617.957031 292.707031 609.105469 282.472656 L 551.898438 216.800781 C 542.1875 97.074219 463.796875 42.800781 379.738281 38.203125 C 379.824219 39.539062 379.878906 40.875 379.878906 42.234375 C 379.878906 49.28125 378.628906 56.222656 376.210938 62.765625 Z M 362.8125 37.945312 C 360.660156 16.671875 342.695312 0.0664062 320.855469 0.0664062 C 297.5625 0.0664062 278.675781 18.953125 278.675781 42.234375 C 278.675781 46.789062 279.40625 51.183594 280.742188 55.292969 C 286.238281 72.1875 302.121094 84.414062 320.855469 84.414062 C 327.914062 84.414062 334.554688 82.679688 340.394531 79.621094 L 413.628906 187.027344 C 406.070312 194.652344 401.394531 205.140625 401.394531 216.714844 L 401.4375 218.5 L 345.765625 238.691406 C 339.914062 231.300781 330.867188 226.550781 320.707031 226.550781 C 303.070312 226.550781 288.75 240.863281 288.75 258.507812 C 288.75 276.152344 303.070312 290.453125 320.707031 290.453125 C 337.902344 290.453125 351.925781 276.859375 352.628906 259.84375 L 408.199219 239.683594 C 415.726562 251.246094 428.753906 258.890625 443.566406 258.890625 C 466.855469 258.890625 485.742188 239.996094 485.742188 216.714844 C 485.742188 193.421875 466.867188 174.535156 443.566406 174.535156 C 439.894531 174.535156 436.335938 175.003906 432.945312 175.882812 L 356.832031 64.253906 C 360.769531 57.835938 363.023438 50.296875 363.023438 42.234375 C 363.023438 40.789062 362.949219 39.355469 362.8125 37.945312 Z M 264.902344 421.875 C 257.855469 426.675781 253.226562 434.773438 253.226562 443.9375 C 253.226562 457.777344 263.757812 469.167969 277.234375 470.515625 C 278.121094 470.597656 279.007812 470.640625 279.917969 470.640625 C 294.664062 470.640625 306.621094 458.6875 306.621094 443.9375 C 306.621094 438.28125 304.859375 433.03125 301.851562 428.710938 L 326.363281 376.210938 L 329.039062 376.328125 C 341.679688 376.328125 352.511719 368.5625 357.015625 357.539062 L 421.136719 357.257812 C 425.5 367.75 435.855469 375.121094 447.917969 375.121094 C 463.9375 375.121094 476.921875 362.136719 476.921875 346.117188 C 476.921875 330.105469 463.9375 317.113281 447.917969 317.113281 C 435.8125 317.113281 425.449219 324.523438 421.09375 335.058594 L 357.269531 335.335938 C 352.929688 323.980469 341.925781 315.914062 329.046875 315.914062 C 319.082031 315.914062 310.238281 320.75 304.730469 328.203125 L 251.886719 299.265625 C 252.433594 296.761719 252.722656 294.152344 252.722656 291.488281 C 252.722656 280.132812 247.589844 269.980469 239.515625 263.234375 L 261.621094 208.585938 C 263.917969 208.875 266.261719 209.035156 268.625 209.035156 C 298.804688 209.035156 323.253906 184.578125 323.253906 154.398438 C 323.253906 124.226562 298.792969 99.769531 268.625 99.769531 C 238.457031 99.769531 213.996094 124.226562 213.996094 154.398438 C 213.996094 174.320312 224.660156 191.742188 240.585938 201.292969 L 218.949219 254.796875 L 215.902344 254.667969 C 195.570312 254.667969 179.082031 271.148438 179.082031 291.488281 C 179.082031 311.820312 195.570312 328.300781 215.902344 328.300781 C 225.535156 328.300781 234.304688 324.597656 240.863281 318.546875 L 299.148438 350.46875 C 300.011719 356.488281 302.65625 361.921875 306.515625 366.253906 L 282.644531 417.394531 L 279.929688 417.253906 C 274.355469 417.246094 269.179688 418.957031 264.902344 421.875 Z M 320.695312 209.707031 C 331.304688 209.707031 341.453125 213.140625 349.773438 219.3125 L 385.449219 206.371094 C 386.703125 199.335938 389.214844 192.609375 392.863281 186.492188 L 333.785156 99.84375 C 329.5625 100.785156 325.230469 101.277344 320.855469 101.277344 L 316.238281 101.097656 C 330.878906 114.1875 340.097656 133.210938 340.097656 154.398438 C 340.097656 177.015625 329.582031 197.183594 313.179688 210.296875 C 315.625 209.902344 318.140625 209.707031 320.695312 209.707031 Z M 264.359375 493.816406 C 281.296875 493.816406 295.03125 507.546875 295.03125 524.488281 C 295.03125 541.429688 281.296875 555.160156 264.359375 555.160156 C 247.429688 555.160156 233.6875 541.429688 233.6875 524.488281 C 233.6875 507.546875 247.417969 493.816406 264.359375 493.816406 Z M 168.953125 447.339844 C 185.894531 447.339844 199.625 461.070312 199.625 478.011719 C 199.625 494.949219 185.894531 508.683594 168.953125 508.683594 C 152.011719 508.683594 138.28125 494.949219 138.28125 478.011719 C 138.28125 461.070312 152.011719 447.339844 168.953125 447.339844 Z M 121.566406 340.929688 C 135.851562 340.929688 147.433594 352.511719 147.433594 366.800781 C 147.433594 381.085938 135.851562 392.667969 121.566406 392.667969 C 107.265625 392.667969 95.695312 381.078125 95.695312 366.800781 C 95.695312 352.5 107.277344 340.929688 121.566406 340.929688 Z M 121.566406 340.929688 " fill-opacity="1" fill-rule="evenodd"/></g></g></g></g></g><g fill="#000000" fill-opacity="1"><g transform="translate(329.012568, 341.696079)"><g><path d="M 6.828125 0 L 6.828125 -2.03125 C 9.242188 -2.800781 10.816406 -4.421875 11.546875 -6.890625 C 12.273438 -9.367188 12.640625 -13.21875 12.640625 -18.4375 L 12.640625 -83.21875 C 12.640625 -88.445312 12.273438 -92.296875 11.546875 -94.765625 C 10.816406 -97.234375 9.242188 -98.851562 6.828125 -99.625 L 6.828125 -101.65625 L 37.328125 -101.65625 C 45.648438 -101.65625 52.445312 -100.757812 57.71875 -98.96875 C 63 -97.1875 67.113281 -94.863281 70.0625 -92 C 73.019531 -89.144531 75.078125 -86.070312 76.234375 -82.78125 C 77.398438 -79.488281 77.984375 -76.390625 77.984375 -73.484375 C 77.984375 -67.484375 76.484375 -61.914062 73.484375 -56.78125 C 70.484375 -51.65625 65.835938 -47.566406 59.546875 -44.515625 C 53.253906 -41.460938 45.117188 -39.9375 35.140625 -39.9375 L 28.03125 -39.9375 L 28.03125 -18.4375 C 28.03125 -13.21875 28.390625 -9.367188 29.109375 -6.890625 C 29.835938 -4.421875 31.414062 -2.800781 33.84375 -2.03125 L 33.84375 0 Z M 28.03125 -42.265625 L 34.421875 -42.265625 C 43.910156 -42.265625 50.804688 -44.78125 55.109375 -49.8125 C 59.421875 -54.851562 61.578125 -61.488281 61.578125 -69.71875 C 61.578125 -72.8125 61.140625 -76.078125 60.265625 -79.515625 C 59.398438 -82.953125 57.875 -86.171875 55.6875 -89.171875 C 53.507812 -92.171875 50.53125 -94.613281 46.75 -96.5 C 42.976562 -98.394531 38.238281 -99.34375 32.53125 -99.34375 C 30.882812 -99.34375 29.382812 -99.242188 28.03125 -99.046875 Z M 28.03125 -42.265625 "/></g></g></g><g fill="#000000" fill-opacity="1"><g transform="translate(410.199193, 341.696079)"><g><path d="M 32.09375 1.15625 C 26.769531 1.15625 21.785156 0.476562 17.140625 -0.875 C 12.492188 -2.226562 8.765625 -3.828125 5.953125 -5.671875 L 4.5 -24.6875 L 5.953125 -24.984375 C 9.054688 -18.003906 13.148438 -12.3125 18.234375 -7.90625 C 23.316406 -3.507812 29.097656 -1.257812 35.578125 -1.15625 C 40.128906 -1.0625 43.734375 -2.296875 46.390625 -4.859375 C 49.054688 -7.429688 50.390625 -10.363281 50.390625 -13.65625 C 50.390625 -18.300781 48.625 -21.785156 45.09375 -24.109375 C 41.5625 -26.429688 36.648438 -28.5625 30.359375 -30.5 C 25.316406 -32.050781 20.929688 -33.671875 17.203125 -35.359375 C 13.484375 -37.054688 10.628906 -39.234375 8.640625 -41.890625 C 6.660156 -44.554688 5.671875 -48.066406 5.671875 -52.421875 C 5.671875 -56.109375 6.660156 -59.570312 8.640625 -62.8125 C 10.628906 -66.050781 13.703125 -68.664062 17.859375 -70.65625 C 22.023438 -72.644531 27.398438 -73.640625 33.984375 -73.640625 C 38.148438 -73.640625 42.265625 -73.296875 46.328125 -72.609375 C 50.390625 -71.929688 53.632812 -71.0625 56.0625 -70 L 56.78125 -54.03125 L 55.046875 -53.734375 C 52.617188 -58.867188 49.25 -63.128906 44.9375 -66.515625 C 40.632812 -69.898438 35.820312 -71.59375 30.5 -71.59375 C 25.945312 -71.59375 22.289062 -70.523438 19.53125 -68.390625 C 16.769531 -66.265625 15.390625 -63.65625 15.390625 -60.5625 C 15.390625 -56.5 17.15625 -53.375 20.6875 -51.1875 C 24.226562 -49.007812 29.242188 -46.8125 35.734375 -44.59375 C 39.597656 -43.332031 43.394531 -41.925781 47.125 -40.375 C 50.851562 -38.820312 53.953125 -36.664062 56.421875 -33.90625 C 58.890625 -31.144531 60.125 -27.296875 60.125 -22.359375 C 60.125 -18.679688 59.253906 -15.023438 57.515625 -11.390625 C 55.773438 -7.765625 52.867188 -4.765625 48.796875 -2.390625 C 44.734375 -0.0234375 39.164062 1.15625 32.09375 1.15625 Z M 32.09375 1.15625 "/></g></g></g><g fill="#000000" fill-opacity="1"><g transform="translate(475.264683, 341.696079)"><g><path d="M 5.234375 28.03125 C 2.222656 28.125 -0.296875 27.734375 -2.328125 26.859375 C -4.359375 25.992188 -5.375 24.832031 -5.375 23.375 C -5.375 22.414062 -4.960938 21.234375 -4.140625 19.828125 C -3.316406 18.421875 -2.082031 17.132812 -0.4375 15.96875 C 1.207031 14.8125 3.144531 14.234375 5.375 14.234375 C 7.5 14.234375 10.378906 14.5 14.015625 15.03125 C 17.648438 15.5625 21.351562 16.164062 25.125 16.84375 C 26.863281 14.90625 28.601562 12.554688 30.34375 9.796875 C 32.09375 7.046875 33.742188 4.019531 35.296875 0.71875 L 10.890625 -55.625 C 8.859375 -60.46875 6.875 -63.976562 4.9375 -66.15625 C 3 -68.332031 1.207031 -69.804688 -0.4375 -70.578125 L -0.4375 -72.609375 L 25.265625 -72.609375 L 25.265625 -70.578125 C 22.847656 -69.804688 21.976562 -68.351562 22.65625 -66.21875 C 23.332031 -64.09375 24.738281 -60.609375 26.875 -55.765625 L 43.421875 -18.015625 L 59.6875 -55.625 C 61.71875 -60.46875 62.585938 -64.023438 62.296875 -66.296875 C 62.015625 -68.578125 60.613281 -70.003906 58.09375 -70.578125 L 58.09375 -72.609375 L 74.65625 -72.609375 L 74.65625 -70.578125 C 72.519531 -69.804688 70.410156 -68.351562 68.328125 -66.21875 C 66.242188 -64.09375 64.140625 -60.609375 62.015625 -55.765625 L 39.796875 -4.359375 C 36.117188 4.066406 32.488281 10.625 28.90625 15.3125 C 25.320312 20.007812 21.59375 23.28125 17.71875 25.125 C 13.84375 26.96875 9.679688 27.9375 5.234375 28.03125 Z M 5.234375 28.03125 "/></g></g></g><g fill="#000000" fill-opacity="1"><g transform="translate(682.677678, 341.696079)"><g><path d="M 35.4375 1.75 C 29.332031 1.644531 23.957031 -0.0976562 19.3125 -3.484375 C 14.664062 -6.867188 11.035156 -11.222656 8.421875 -16.546875 C 5.804688 -21.878906 4.5 -27.546875 4.5 -33.546875 C 4.5 -41.003906 6.117188 -47.734375 9.359375 -53.734375 C 12.609375 -59.734375 17.257812 -64.523438 23.3125 -68.109375 C 29.363281 -71.691406 36.597656 -73.484375 45.015625 -73.484375 C 48.117188 -73.484375 50.953125 -73.144531 53.515625 -72.46875 C 56.085938 -71.789062 58.4375 -70.921875 60.5625 -69.859375 L 60.5625 -95.421875 C 60.5625 -99.679688 60.050781 -102.488281 59.03125 -103.84375 C 58.019531 -105.195312 56.59375 -106.257812 54.75 -107.03125 L 54.75 -109.078125 L 73.921875 -117.5 L 75.375 -116.328125 L 75.375 -18.4375 C 75.375 -13.21875 75.738281 -9.367188 76.46875 -6.890625 C 77.195312 -4.421875 78.769531 -2.800781 81.1875 -2.03125 L 81.1875 0 L 66.375 0 C 62.5 0 60.5625 -1.9375 60.5625 -5.8125 L 60.5625 -11.90625 C 58.71875 -9.78125 56.535156 -7.648438 54.015625 -5.515625 C 51.503906 -3.390625 48.695312 -1.625 45.59375 -0.21875 C 42.5 1.1875 39.113281 1.84375 35.4375 1.75 Z M 18.734375 -45.3125 C 18.734375 -41.820312 19.09375 -37.898438 19.8125 -33.546875 C 20.539062 -29.191406 21.847656 -25.003906 23.734375 -20.984375 C 25.628906 -16.960938 28.242188 -13.617188 31.578125 -10.953125 C 34.921875 -8.296875 39.207031 -6.96875 44.4375 -6.96875 C 47.632812 -6.96875 50.585938 -7.742188 53.296875 -9.296875 C 56.015625 -10.847656 58.4375 -12.734375 60.5625 -14.953125 L 60.5625 -47.0625 C 60.5625 -50.632812 59.59375 -54.210938 57.65625 -57.796875 C 55.71875 -61.378906 53.125 -64.378906 49.875 -66.796875 C 46.632812 -69.222656 42.984375 -70.4375 38.921875 -70.4375 C 33.597656 -70.4375 29.484375 -69.128906 26.578125 -66.515625 C 23.671875 -63.898438 21.632812 -60.679688 20.46875 -56.859375 C 19.3125 -53.035156 18.734375 -49.1875 18.734375 -45.3125 Z M 18.734375 -45.3125 "/></g></g></g><g fill="#000000" fill-opacity="1"><g transform="translate(766.478548, 341.696079)"><g><path d="M 38.921875 1.453125 C 34.859375 1.453125 30.816406 0.726562 26.796875 -0.71875 C 22.773438 -2.175781 19.070312 -4.359375 15.6875 -7.265625 C 12.300781 -10.171875 9.585938 -13.800781 7.546875 -18.15625 C 5.515625 -22.507812 4.5 -27.640625 4.5 -33.546875 C 4.5 -39.742188 5.585938 -45.3125 7.765625 -50.25 C 9.941406 -55.1875 12.867188 -59.394531 16.546875 -62.875 C 20.234375 -66.363281 24.328125 -69.03125 28.828125 -70.875 C 33.328125 -72.71875 37.953125 -73.640625 42.703125 -73.640625 C 49.285156 -73.640625 54.800781 -72.332031 59.25 -69.71875 C 63.707031 -67.101562 67.070312 -63.804688 69.34375 -59.828125 C 71.625 -55.859375 72.765625 -51.742188 72.765625 -47.484375 L 17.71875 -47.484375 C 17.625 -46.710938 17.550781 -45.9375 17.5 -45.15625 C 17.445312 -44.382812 17.421875 -43.613281 17.421875 -42.84375 C 17.421875 -36.550781 18.65625 -30.9375 21.125 -26 C 23.59375 -21.0625 27.078125 -17.210938 31.578125 -14.453125 C 36.085938 -11.691406 41.390625 -10.3125 47.484375 -10.3125 C 52.910156 -10.3125 57.703125 -11.375 61.859375 -13.5 C 66.023438 -15.632812 69.609375 -18.394531 72.609375 -21.78125 L 73.921875 -20.328125 C 71.691406 -16.941406 68.929688 -13.578125 65.640625 -10.234375 C 62.347656 -6.898438 58.472656 -4.117188 54.015625 -1.890625 C 49.566406 0.335938 44.535156 1.453125 38.921875 1.453125 Z M 17.859375 -49.53125 L 58.09375 -49.53125 C 57.507812 -53.5 56.273438 -57.101562 54.390625 -60.34375 C 52.503906 -63.582031 50.179688 -66.171875 47.421875 -68.109375 C 44.660156 -70.046875 41.585938 -71.015625 38.203125 -71.015625 C 34.128906 -71.117188 30.6875 -70.148438 27.875 -68.109375 C 25.070312 -66.078125 22.847656 -63.414062 21.203125 -60.125 C 19.554688 -56.832031 18.441406 -53.300781 17.859375 -49.53125 Z M 17.859375 -49.53125 "/></g></g></g><g clip-path="url(#9134c33228)"><g transform="matrix(1, 0, 0, 1, 0.000000000000000028, -0.000000000000001003)"><g clip-path="url(#ff60e00839)"><g clip-path="url(#bd5e45f818)"><g mask="url(#3d855ef428)"><g transform="matrix(1, 0, 0, 1, 0.000000000000000028, -0.000000000000001003)"><g clip-path="url(#4951d68c46)"><g clip-path="url(#c80afaf94b)"><path fill="url(#715d21156e)" d="M 258.4375 0 L 258.4375 555.5 L 973.617188 555.5 L 973.617188 0 Z M 258.4375 0 " fill-rule="nonzero"/></g></g></g></g></g></g></g></g></svg>